<svg width="319" height="399" viewBox="0 0 319 399" fill="none" xmlns="http://www.w3.org/2000/svg">
<g clip-path="url(#clip0_820_10529)">
<path d="M40 179.75H100V298.75H40V179.75Z" fill="#09386B"/>
<path d="M219 179.75H279V298.75H219V179.75Z" fill="#09386B"/>
<path d="M239 338.75V398.75H100V338.75H239Z" fill="#46C4F8"/>
<path d="M179.438 3.58299e-09H139.563C121.235 -0.00013132 103.087 3.60968 86.1544 10.6233C69.2218 17.637 53.8364 27.9171 40.8768 40.8768C27.9171 53.8364 17.637 69.2218 10.6233 86.1544C3.60968 103.087 -0.00013132 121.235 3.58299e-09 139.563V299.063H39.875V139.563C39.9049 113.133 50.4174 87.7948 69.106 69.1063C87.7947 50.4178 113.133 39.9056 139.563 39.876H179.438C205.868 39.9056 231.207 50.418 249.895 69.1067C268.584 87.7954 279.096 113.134 279.126 139.564V358.875H239.25V398.75H319V139.563C319 121.235 315.39 103.087 308.377 86.1546C301.363 69.2221 291.083 53.8368 278.124 40.8771C265.164 27.9175 249.779 17.6373 232.846 10.6236C215.914 3.60991 197.766 3.11254e-09 179.438 3.58299e-09Z" fill="#065C91"/>
</g>
<defs>
<clipPath id="clip0_820_10529">
<rect width="319" height="398.75" fill="white"/>
</clipPath>
</defs>
</svg>
