<svg width="100" height="100" viewBox="0 0 100 100" fill="none" xmlns="http://www.w3.org/2000/svg">
<path d="M50.0001 13.0001C57.6368 13.0035 65.0854 15.3698 71.324 19.7744C77.5625 24.1791 82.2853 30.4062 84.8444 37.6014C87.4034 44.7966 87.6734 52.6074 85.6173 59.9622C83.5611 67.3169 79.2796 73.8553 73.36 78.6802C67.684 83.2916 60.7688 86.1175 53.4877 86.8011C46.2066 87.4847 38.8862 85.9952 32.4511 82.5208C26.016 79.0465 20.7548 73.743 17.332 67.2803C13.9092 60.8176 12.4783 53.4855 13.2201 46.2101C14.1576 37.1058 18.4362 28.672 25.2292 22.5383C32.0223 16.4047 40.8476 13.0064 50.0001 13.0001ZM50.0001 3.00015C39.3328 3.00214 28.9835 6.63281 20.6529 13.2955C12.3223 19.9582 6.506 29.2566 4.15978 39.6626C1.81355 50.0687 3.07699 60.9634 7.74247 70.5563C12.408 80.1492 20.1979 87.8697 29.8322 92.4491C39.4666 97.0284 50.3721 98.1942 60.7567 95.7548C71.1413 93.3154 80.3872 87.416 86.975 79.0261C93.5628 70.6361 97.1006 60.2546 97.007 49.5878C96.9134 38.9209 93.194 28.6032 86.46 20.3301C82.0628 14.9019 76.5054 10.5277 70.1961 7.52888C63.8868 4.52996 56.9858 2.9825 50.0001 3.00015Z" fill="#09386B"/>
<path d="M52.966 46.3564L42.3594 56.963L60.037 74.6407L70.6436 64.0341L52.966 46.3564Z" fill="#46C4F8"/>
<path d="M42 57H57V27H42V57Z" fill="#065C91"/>
</svg>
