<svg width="100" height="100" viewBox="0 0 100 100" fill="none" xmlns="http://www.w3.org/2000/svg">
<path d="M50.45 55.91C43.8305 55.52 37.6102 52.6157 33.0613 47.791C28.5125 42.9663 25.979 36.5859 25.979 29.955C25.979 23.3241 28.5125 16.9437 33.0613 12.119C37.6102 7.29433 43.8305 4.38996 50.45 4" fill="#09386B"/>
<path d="M50.4497 4C57.0692 4.38996 63.2895 7.29433 67.8383 12.119C72.3871 16.9437 74.9207 23.3241 74.9207 29.955C74.9207 36.5859 72.3871 42.9663 67.8383 47.791C63.2895 52.6157 57.0692 55.52 50.4497 55.91" fill="#065C91"/>
<path d="M11.0698 95.9998C11.0698 85.6749 15.1714 75.7729 22.4722 68.4721C29.7729 61.1713 39.6749 57.0698 49.9998 57.0698V95.9998" fill="#46C4F8"/>
<path d="M50 57.0698C55.1124 57.0698 60.1747 58.0768 64.8979 60.0332C69.6211 61.9896 73.9127 64.8572 77.5277 68.4721C81.1427 72.0871 84.0102 76.3787 85.9666 81.1019C87.9231 85.8251 88.93 90.8874 88.93 95.9998H50" fill="#09386B"/>
</svg>
