<svg xmlns="http://www.w3.org/2000/svg" xmlns:xlink="http://www.w3.org/1999/xlink" viewBox="0 0 1546.37 423.81"><defs><style>.cls-1{fill:url(#linear-gradient);}.cls-2{fill:url(#linear-gradient-2);}.cls-3{fill:#424143;}.cls-4{fill:#414042;}</style><linearGradient id="linear-gradient" x1="0.26" y1="101" x2="358.23" y2="51.87" gradientUnits="userSpaceOnUse"><stop offset="0" stop-color="#ffc600"/><stop offset="0.2" stop-color="#ff9b00"/><stop offset="0.37" stop-color="#e9371d"/><stop offset="0.59" stop-color="#a52bb4"/><stop offset="0.79" stop-color="#4a2bb4"/><stop offset="0.99" stop-color="#00d1af"/></linearGradient><linearGradient id="linear-gradient-2" x1="367.91" y1="332.47" x2="38.92" y2="367.72" xlink:href="#linear-gradient"/></defs><title>motusbank-wordmark-RGB</title><g id="Layer_2" data-name="Layer 2"><g id="Layer_1-2" data-name="Layer 1"><path class="cls-1" d="M190.8,18.1c82.15,0,153.67,43.36,190.8,107.38a207.8,207.8,0,0,0-381.6,0C37.13,61.46,108.65,18.1,190.8,18.1Z"/><path class="cls-2" d="M190.8,405.71c-82.15,0-153.67-43.36-190.8-107.38a207.8,207.8,0,0,0,381.6,0C344.47,362.35,273,405.71,190.8,405.71Z"/><path class="cls-3" d="M204.09,286.1H183.62l0-83.13c0-26.28-12.54-42.47-34.54-42.47-22.61,0-47.36,12.85-47.36,47.69l0,77.93H81.24l0-142.71h20.48v23.53c8.86-18.64,34.22-26.59,47.36-26.59,24.15,0,41.27,11.29,49.52,31.15,12.83-26.89,38.5-31.18,52.86-31.18,34.84,0,55.32,23.82,55,62.63l0,83.13H286L286,203c0-26.28-12.54-42.48-34.54-42.47-22.62,0-47.37,12.84-47.36,47.68Z"/><path class="cls-3" d="M336.7,211.28c0-45.23,33.91-74,74.55-74s74.58,28.7,74.59,73.93-33.91,74.88-74.55,74.89S336.72,256.51,336.7,211.28Zm129,0c0-33-24.77-53.78-54.41-53.77s-54.4,20.79-54.39,53.8S381.64,266,411.28,266,465.68,244.25,465.67,211.25Z"/><path class="cls-3" d="M525.89,286.13l0-124.38H500.19V143.42h25.67l0-53.47h20.48v53.48h30.26v18.34H546.34l0,124.38Z"/><path class="cls-3" d="M703.42,140.35h20.47l0,142.72H703.45V259.54c-8.86,18.64-30.86,26.59-47.37,26.59-34.84,0-55.32-23.82-55-62.63l0-83.12h20.47l0,83.12c0,26.29,12.55,42.48,34.55,42.47,22.61,0,47.36-12.84,47.36-47.68Z"/><path class="cls-3" d="M772.51,242.14c2.75,10.69,9.48,24.75,33.62,24.74,18.34,0,30.25-9.17,30.25-22.62,0-9.47-5.51-18.33-20.48-22L796,217.68c-17.72-4.27-39.73-13.13-36.07-46.44,3-20.48,23.22-33.93,46.44-33.93,22,0,41.26,10.68,44.94,37H831.47c-2.45-11-12.84-17.42-25.06-17.42-13.75,0-25.06,7.35-26.58,17.43-3.06,16.51,11,21.39,21.09,23.83l19.56,4.58c26.89,6.41,36.07,22,36.07,41.55,0,24.76-22.6,41.88-52.25,41.88-24.14,0-48.59-16.18-49.82-44Z"/><path class="cls-3" d="M898.73,283.09h-9.17l0-197.66h9.16l0,90.39a74.4,74.4,0,1,1,0,71.81ZM964.1,146.47c-36.06,0-65.39,29.36-65.39,65.11v2.75C900,249.17,929,277,964.13,277c35.76,0,65.08-29.36,65.08-65.42A65.35,65.35,0,0,0,964.1,146.47Z"/><path class="cls-3" d="M1202.8,247.61a74.41,74.41,0,1,1,0-71.82V140.34h9.17l0,142.72h-9.17ZM1137.41,277c35.14,0,64.17-27.83,65.38-62.67v-2.75c0-35.76-29.36-65.08-65.41-65.08a65.35,65.35,0,0,0-65.08,65.11C1072.31,247.65,1101.65,277,1137.41,277Z"/><path class="cls-3" d="M1257.47,143.42h9.17v31.48c7.94-25.36,31.46-34.54,52.86-34.54,33,0,58.38,23.21,58.39,61.71l0,84h-9.17l0-84.05c0-32.69-21.41-52.55-49.22-52.55-26.89,0-51.64,15-52.85,55l0,81.59h-9.17Z"/><path class="cls-3" d="M1511.88,286.11l-81.11-77.41,0,77.43h-9.15L1421.58,89h9.15l0,115.46,59.12-60.68H1503l-61.26,62.51,83.55,79.85Z"/><path class="cls-4" d="M1546.37,99.46a14.23,14.23,0,1,1-14.24-14.41A14.26,14.26,0,0,1,1546.37,99.46Zm-2,0a12.29,12.29,0,1,0-12.28,12.42A12.36,12.36,0,0,0,1544.41,99.46ZM1534,101.54l3.53,5.17h-2.27l-3.46-5h-2.28v5h-2.08V92.38h5.46a4.25,4.25,0,0,1,4.51,4.56C1537.45,99.38,1536.48,101.05,1534,101.54Zm-4.48-1.75h3.25a2.75,2.75,0,0,0,0-5.5h-3.29Z"/></g></g></svg>