<svg width="800" height="800" viewBox="0 0 800 800" fill="none" xmlns="http://www.w3.org/2000/svg">
<g clip-path="url(#clip0_825_10700)">
<mask id="mask0_825_10700" style="mask-type:luminance" maskUnits="userSpaceOnUse" x="0" y="0" width="800" height="800">
<path d="M800 0H0V800H800V0Z" fill="white"/>
</mask>
<g mask="url(#mask0_825_10700)">
<path d="M344.673 505.554L258.483 455.578C263.24 471.612 275.479 514.343 286.719 551.682C320.834 573.427 367.513 603.558 386.983 615.94L344.673 505.554Z" fill="#46C4F8"/>
<path d="M420.783 407.995L379.652 418.254L357.594 500.09L401.006 613.347C425.853 596.692 482.114 558.652 508.573 540.749L420.783 407.995Z" fill="#09386B"/>
<path d="M399.582 194.78L430.319 396.98L515.903 526.395C520.763 505.508 530.827 462.046 534.99 447.934C508.447 398.34 423.506 239.315 399.582 194.78Z" fill="#065C91"/>
<path d="M376.03 403.337L378.554 404.027L415.805 394.736L385.505 195.427C372.362 222.541 343.237 282.581 318.05 334.618L376.03 403.337Z" fill="#46C4F8"/>
<path d="M345.806 489.96L366.368 413.662L311.225 348.302C290.794 384.4 270.922 422.103 261.198 440.902L345.806 489.96Z" fill="#065C91"/>
</g>
</g>
<defs>
<clipPath id="clip0_825_10700">
<rect width="800" height="800" fill="white"/>
</clipPath>
</defs>
</svg>
