<svg width="800" height="800" viewBox="0 0 800 800" fill="none" xmlns="http://www.w3.org/2000/svg">
<g clip-path="url(#clip0_825_10535)">
<mask id="mask0_825_10535" style="mask-type:luminance" maskUnits="userSpaceOnUse" x="0" y="0" width="800" height="800">
<path d="M800 0H0V800H800V0Z" fill="white"/>
</mask>
<g mask="url(#mask0_825_10535)">
<path d="M211.116 549.55C210.596 480.937 266.634 424.9 336.281 424.387C405.929 423.874 462.812 479.08 463.332 547.693C463.337 548.312 463.337 548.931 463.332 549.55" fill="#09386B"/>
<path d="M335.891 247.573C383.993 247.573 422.988 285.988 422.988 333.377C422.988 380.765 383.993 419.181 335.891 419.181C287.788 419.181 248.793 380.765 248.793 333.377C248.793 285.988 287.788 247.573 335.891 247.573Z" fill="#46C4F8"/>
<path d="M511.486 247.573H590.158V550.543H511.486V247.573Z" fill="#065C91"/>
</g>
</g>
<defs>
<clipPath id="clip0_825_10535">
<rect width="800" height="800" fill="white"/>
</clipPath>
</defs>
</svg>
