<svg width="800" height="800" viewBox="0 0 800 800" fill="none" xmlns="http://www.w3.org/2000/svg">
<mask id="mask0_1541_1712" style="mask-type:luminance" maskUnits="userSpaceOnUse" x="0" y="0" width="800" height="800">
<path d="M800 0H0V800H800V0Z" fill="white"/>
</mask>
<g mask="url(#mask0_1541_1712)">
<circle cx="517.19" cy="529.752" r="117.808" fill="#46C4F8"/>
<path d="M517.191 411.944C452.161 411.944 399.382 464.723 399.382 529.753C399.382 594.784 452.161 647.562 517.191 647.562C582.222 647.562 635 594.784 635 529.753C635 464.723 582.222 411.944 517.191 411.944ZM497.399 559.677C503.29 565.567 503.29 575.227 497.399 581.354C494.336 584.417 490.566 585.83 486.561 585.83C482.555 585.83 478.785 584.417 475.722 581.354L434.96 540.592C429.07 534.701 429.07 525.041 434.96 518.915L475.722 478.153C481.613 472.263 491.273 472.263 497.399 478.153C503.29 484.043 503.29 493.704 497.399 499.83L467.476 529.753L497.399 559.677ZM599.186 540.592L558.424 581.354C555.361 584.417 551.591 585.83 547.586 585.83C543.58 585.83 539.81 584.417 536.747 581.354C530.857 575.463 530.857 565.803 536.747 559.677L566.671 529.753L536.747 499.83C530.857 493.939 530.857 484.279 536.747 478.153C542.638 472.263 552.298 472.263 558.424 478.153L599.186 518.915C605.077 525.041 605.077 534.466 599.186 540.592Z" fill="#065C91"/>
<path d="M588.112 270.809V435.741C568.556 420.897 544.052 412.18 517.427 412.18C452.396 412.18 399.618 464.958 399.618 529.988C399.618 568.394 418.232 602.794 446.741 624.236H281.809C199.343 624.236 164 577.112 164 506.427V270.809C164 200.124 199.343 153 281.809 153H303.721L304.664 189.05C305.135 208.135 320.921 223.685 340.007 223.685H411.399C430.719 223.685 446.741 207.663 446.741 188.343V153H470.303C552.769 153 588.112 200.124 588.112 270.809Z" fill="#09386B"/>
</g>
</svg>
