<svg width="800" height="800" viewBox="0 0 800 800" fill="none" xmlns="http://www.w3.org/2000/svg">
<mask id="mask0_1541_1712" style="mask-type:luminance" maskUnits="userSpaceOnUse" x="0" y="0" width="800" height="800">
<path d="M800 0H0V800H800V0Z" fill="white"/>
</mask>
<g mask="url(#mask0_1541_1712)">
<path d="M478.152 552.461C475.82 551.043 473.788 549.14 472.173 546.835C471.428 545.772 470.798 544.648 470.276 543.487H205.307V282.319H564.964V452.852C572.642 453.546 579.084 458.589 581.789 465.494C584.184 464.181 586.853 463.37 589.659 463.123C591.557 462.958 593.442 463.076 595.27 463.437V217.257C595.27 203.33 583.942 192 570.016 192H200.256C186.33 192 175 203.33 175 217.257V548.539C175 562.466 186.33 573.795 200.256 573.795H475.85C473.699 569.44 473.189 564.523 474.455 559.793C475.185 557.073 476.447 554.591 478.152 552.461ZM537.23 234.411C537.23 229.261 541.405 225.085 546.555 225.085H555.88C561.031 225.085 565.205 229.26 565.205 234.411V244.98C565.205 250.13 561.03 254.305 555.88 254.305H546.555C541.403 254.305 537.23 250.13 537.23 244.98V234.411ZM493.867 234.411C493.867 229.261 498.042 225.085 503.192 225.085H512.518C517.67 225.085 521.843 229.26 521.843 234.411V244.98C521.843 250.13 517.668 254.305 512.518 254.305H503.192C498.042 254.305 493.867 250.13 493.867 244.98V234.411ZM450.503 234.411C450.503 229.261 454.679 225.085 459.829 225.085H469.154C474.305 225.085 478.48 229.26 478.48 234.411V244.98C478.48 250.13 474.305 254.305 469.154 254.305H459.829C454.679 254.305 450.503 250.13 450.503 244.98V234.411Z" fill="#09386B"/>
<path d="M624.94 534.676L622.138 518.784C621.76 516.644 619.721 515.215 617.579 515.592L603.446 518.082C601.75 514.101 599.583 510.372 597.011 506.959L606.242 495.956C606.913 495.159 607.24 494.125 607.15 493.084C607.058 492.044 606.556 491.083 605.757 490.411L593.397 480.038C592.597 479.367 591.561 479.042 590.522 479.133C589.481 479.224 588.521 479.724 587.85 480.524L578.628 491.518C574.842 489.59 570.792 488.102 566.55 487.121V472.77C566.55 470.596 564.787 468.833 562.614 468.833H546.475C544.303 468.833 542.539 470.596 542.539 472.77V487.121C538.295 488.101 534.249 489.59 530.461 491.518L521.237 480.525C519.84 478.86 517.358 478.643 515.691 480.039L503.33 490.411C502.531 491.083 502.03 492.044 501.938 493.084C501.848 494.125 502.174 495.16 502.845 495.959L512.077 506.96C509.509 510.372 507.338 514.104 505.642 518.084L491.509 515.592C489.373 515.216 487.329 516.644 486.95 518.784L484.149 534.676C483.967 535.704 484.202 536.761 484.799 537.617C485.4 538.473 486.31 539.055 487.339 539.236L501.482 541.729C501.712 546.11 502.475 550.35 503.703 554.386L491.273 561.561C490.368 562.08 489.709 562.942 489.438 563.949C489.168 564.958 489.311 566.031 489.831 566.936L497.899 580.911C498.419 581.815 499.281 582.474 500.288 582.744C500.623 582.834 500.965 582.878 501.307 582.878C501.992 582.878 502.67 582.7 503.275 582.351L515.715 575.168C518.64 578.302 521.943 581.08 525.552 583.429L520.64 596.924C520.284 597.905 520.33 598.988 520.772 599.934C521.213 600.88 522.012 601.612 522.992 601.968L538.153 607.485C538.588 607.644 539.045 607.725 539.5 607.725C540.068 607.725 540.639 607.602 541.166 607.356C542.112 606.915 542.842 606.116 543.198 605.134L548.11 591.64C550.215 591.895 552.358 592.026 554.533 592.026C556.707 592.026 558.85 591.893 560.956 591.64L565.868 605.134C566.224 606.116 566.957 606.915 567.901 607.356C568.426 607.601 568.995 607.725 569.566 607.725C570.021 607.725 570.477 607.646 570.912 607.485L586.075 601.968C587.054 601.612 587.853 600.878 588.294 599.934C588.735 598.988 588.782 597.905 588.425 596.924L583.513 583.431C587.119 581.082 590.422 578.302 593.351 575.17L605.791 582.353C606.394 582.7 607.074 582.88 607.758 582.88C608.099 582.88 608.444 582.834 608.777 582.746C609.786 582.476 610.645 581.815 611.166 580.913L619.234 566.936C619.755 566.034 619.897 564.958 619.627 563.949C619.356 562.944 618.697 562.083 617.793 561.561L605.364 554.388C606.592 550.351 607.353 546.111 607.584 541.731L621.727 539.237C622.755 539.056 623.668 538.474 624.266 537.618C624.887 536.761 625.122 535.704 624.94 534.676ZM554.546 559.93C542.592 559.93 532.899 550.237 532.899 538.282C532.899 526.327 542.593 516.636 554.546 516.636C566.5 516.636 576.193 526.327 576.193 538.282C576.193 550.237 566.5 559.93 554.546 559.93Z" fill="#065C91"/>
<path d="M351.488 427.09C351.488 421.998 348.504 417.32 343.884 415.175L301.604 395.53L343.885 375.883C348.504 373.736 351.488 369.059 351.488 363.969V363.627C351.488 359.116 349.217 354.974 345.417 352.553C343.315 351.21 340.866 350.5 338.338 350.5C336.433 350.5 334.52 350.919 332.809 351.714L265.214 383.148C260.597 385.295 257.614 389.972 257.614 395.061V396C257.614 401.083 260.596 405.756 265.215 407.914L332.816 439.351C334.564 440.16 336.426 440.571 338.348 440.571C340.854 440.571 343.295 439.859 345.417 438.509C349.22 436.078 351.489 431.94 351.489 427.434L351.488 427.09Z" fill="#46C4F8"/>
<path d="M418.182 318.471C415.716 315.095 411.75 313.081 407.572 313.081H407.235C401.498 313.081 396.468 316.751 394.72 322.206L350.184 460.199C348.916 464.183 349.63 468.572 352.093 471.946C354.558 475.32 358.524 477.335 362.703 477.335H363.04C368.775 477.335 373.802 473.664 375.548 468.209L420.078 330.227C421.358 326.246 420.649 321.852 418.182 318.471Z" fill="#46C4F8"/>
<path d="M505.056 383.146L437.46 351.713C435.754 350.92 433.844 350.501 431.939 350.501C429.412 350.501 426.962 351.209 424.861 352.55C421.055 354.975 418.784 359.116 418.784 363.627V363.969C418.784 369.055 421.766 373.732 426.389 375.888L468.668 395.531L426.388 415.175C421.768 417.32 418.784 421.997 418.784 427.09V427.434C418.784 431.94 421.055 436.077 424.859 438.51C426.974 439.858 429.417 440.571 431.926 440.571C433.846 440.571 435.706 440.16 437.465 439.348L505.064 407.911C509.68 405.758 512.66 401.084 512.66 396.001V395.062C512.657 389.971 509.674 385.295 505.056 383.146Z" fill="#46C4F8"/>
</g>
</svg>
